<svg width="17" height="16" viewBox="0 0 17 16" fill="none" xmlns="http://www.w3.org/2000/svg">
<g clip-path="url(#clip0_3837_4833)">
<rect x="0.372803" width="16.2712" height="16" rx="3" fill="#3E86F5"/>
<path d="M14.2605 0H2.75628C1.44219 0 0.372803 1.05156 0.372803 2.34375V13.6562C0.372803 14.9487 1.44219 16 2.75628 16H14.2605C15.5749 16 16.644 14.9487 16.644 13.6562V2.34375C16.644 1.05156 15.5749 0 14.2605 0ZM15.6906 13.6562C15.6906 14.4316 15.049 15.0625 14.2605 15.0625H2.75628C1.96782 15.0625 1.32619 14.4316 1.32619 13.6562V2.34375C1.32619 1.56844 1.96782 0.9375 2.75628 0.9375H14.2605C15.049 0.9375 15.6906 1.56844 15.6906 2.34375V13.6562Z" fill="white"/>
<path d="M13.752 1.90625C13.2263 1.90625 12.7986 2.32687 12.7986 2.84375C12.7986 3.36063 13.2263 3.78125 13.752 3.78125C14.2776 3.78125 14.7054 3.36063 14.7054 2.84375C14.7054 2.32687 14.2776 1.90625 13.752 1.90625Z" fill="white"/>
<path d="M8.50852 3.78125C6.14284 3.78125 4.21826 5.67375 4.21826 8C4.21826 10.3263 6.14284 12.2188 8.50852 12.2188C10.8742 12.2188 12.7988 10.3263 12.7988 8C12.7988 5.67375 10.8742 3.78125 8.50852 3.78125ZM8.50852 11.2812C6.66847 11.2812 5.17165 9.80937 5.17165 8C5.17165 6.19062 6.66847 4.71875 8.50852 4.71875C10.3486 4.71875 11.8454 6.19062 11.8454 8C11.8454 9.80937 10.3486 11.2812 8.50852 11.2812Z" fill="white"/>
</g>
<defs>
<clipPath id="clip0_3837_4833">
<rect x="0.372803" width="16.2712" height="16" rx="3" fill="white"/>
</clipPath>
</defs>
</svg>
