<svg width="48" height="48" viewBox="0 0 48 48" fill="none" xmlns="http://www.w3.org/2000/svg">
    <g filter="url(#filter0_dd_24_94)">
        <circle cx="24" cy="20" r="19.75" stroke="white" stroke-width="0.5" stroke-dasharray="5 5"/>
        <g clip-path="url(#clip0_24_94)">
            <path d="M27.3672 28.9172L28.714 27.5703L26.6937 18.8157L30.3976 15.1118C30.9566 14.5528 30.9566 13.6504 30.3976 13.0915C29.8387 12.5325 28.9363 12.5325 28.3773 13.0915L24.6734 16.7954L15.9188 14.7751L14.5719 16.1219L21.643 19.8258L17.9391 23.5297L15.5821 23.193L14.5719 24.2032L17.6024 25.8867L19.286 28.9172L20.2961 27.9071L19.9594 25.55L23.6633 21.8461L27.3672 28.9172Z" fill="#3E86F5"/>
        </g>
    </g>
    <defs>
        <filter id="filter0_dd_24_94" x="0" y="0" width="48" height="48" filterUnits="userSpaceOnUse" color-interpolation-filters="sRGB">
        <feFlood flood-opacity="0" result="BackgroundImageFix"/>
        <feColorMatrix in="SourceAlpha" type="matrix" values="0 0 0 0 0 0 0 0 0 0 0 0 0 0 0 0 0 0 127 0" result="hardAlpha"/>
        <feOffset dy="4"/>
        <feGaussianBlur stdDeviation="2"/>
        <feComposite in2="hardAlpha" operator="out"/>
        <feColorMatrix type="matrix" values="0 0 0 0 0 0 0 0 0 0 0 0 0 0 0 0 0 0 0.25 0"/>
        <feBlend mode="normal" in2="BackgroundImageFix" result="effect1_dropShadow_24_94"/>
        <feColorMatrix in="SourceAlpha" type="matrix" values="0 0 0 0 0 0 0 0 0 0 0 0 0 0 0 0 0 0 127 0" result="hardAlpha"/>
        <feOffset dy="4"/>
        <feGaussianBlur stdDeviation="2"/>
        <feComposite in2="hardAlpha" operator="out"/>
        <feColorMatrix type="matrix" values="0 0 0 0 0 0 0 0 0 0 0 0 0 0 0 0 0 0 0.25 0"/>
        <feBlend mode="normal" in2="effect1_dropShadow_24_94" result="effect2_dropShadow_24_94"/>
        <feBlend mode="normal" in="SourceGraphic" in2="effect2_dropShadow_24_94" result="shape"/>
        </filter>
        <clipPath id="clip0_24_94">
        <rect width="22.8571" height="22.8571" fill="white" transform="translate(24 4) rotate(45)"/>
        </clipPath>
    </defs>
</svg>
