<svg width="17" height="13" viewBox="0 0 17 13" fill="none" xmlns="http://www.w3.org/2000/svg">
<path d="M16.7797 1.539C16.1746 1.8 15.5298 1.973 14.8576 2.057C15.5492 1.651 16.077 1.013 16.3251 0.244C15.6803 0.622 14.9685 0.889 14.2098 1.038C13.5976 0.397 12.7251 0 11.7732 0C9.92645 0 8.43967 1.474 8.43967 3.281C8.43967 3.541 8.46204 3.791 8.51696 4.029C5.74374 3.896 3.28984 2.589 1.64137 0.598C1.35357 1.089 1.18476 1.651 1.18476 2.256C1.18476 3.392 1.77967 4.399 2.66645 4.982C2.13052 4.972 1.60476 4.819 1.15933 4.578C1.15933 4.588 1.15933 4.601 1.15933 4.614C1.15933 6.208 2.3156 7.532 3.83187 7.837C3.56035 7.91 3.26442 7.945 2.9573 7.945C2.74374 7.945 2.52814 7.933 2.32577 7.889C2.75798 9.188 3.98442 10.143 5.44272 10.174C4.30781 11.047 2.86679 11.573 1.30679 11.573C1.03323 11.573 0.770857 11.561 0.508484 11.528C1.98611 12.465 3.7373 13 5.62577 13C11.7641 13 15.12 8 15.12 3.666C15.12 3.521 15.1149 3.381 15.1078 3.242C15.7698 2.78 16.3261 2.203 16.7797 1.539Z" fill="#3E86F5"/>
</svg>
